<svg id="Layer_1" enable-background="new 0 0 512 512" height="512" viewBox="0 0 512 512" width="512" xmlns="http://www.w3.org/2000/svg"><path d="m0 432.626c0 5.666 4.636 10.302 10.302 10.302h491.396c5.666 0 10.302-4.636 10.302-10.302v-77.388h-512z" fill="#8c9ba7"/><path d="m41.723 432.626v-77.388h-41.723v77.388c0 5.666 4.636 10.302 10.302 10.302h41.723c-5.667 0-10.302-4.636-10.302-10.302z" fill="#798b97"/><path d="m501.698 69.072h-491.396c-5.666 0-10.302 4.636-10.302 10.302v276.936h512v-276.936c0-5.666-4.636-10.302-10.302-10.302z" fill="#98e5fb"/><path d="m256 316.781c-35.609 0-69.266-15.575-92.338-42.73-.98-1.154-.98-2.849 0-4.003 23.072-27.155 56.729-42.729 92.338-42.729s69.266 15.574 92.338 42.729c.98 1.154.98 2.849 0 4.003-23.072 27.155-56.729 42.73-92.338 42.73z" fill="#fff"/><path d="m52.024 69.072h-41.722c-5.666 0-10.302 4.636-10.302 10.302v276.936h41.723v-276.936c0-5.666 4.635-10.302 10.301-10.302z" fill="#62dafa"/><path d="m351.792 399.229c0-2.736.752-5.294 2.039-7.5h-232.665c-4.143 0-7.5 3.357-7.5 7.5s3.357 7.5 7.5 7.5h232.666c-1.288-2.206-2.04-4.763-2.04-7.5z" fill="#374949"/><path d="m471.617 391.729h-92.24c1.287 2.206 2.039 4.764 2.039 7.5s-.752 5.294-2.039 7.5h92.24c4.143 0 7.5-3.357 7.5-7.5 0-4.142-3.357-7.5-7.5-7.5z" fill="#374949"/><ellipse cx="366.604" cy="399.229" fill="#fda613" rx="15.812" ry="15.883"/><circle cx="84.551" cy="399.229" fill="#fff" r="7.5"/><circle cx="53" cy="399.229" fill="#fde35a" r="7.5"/><circle cx="256" cy="272.051" fill="#3d5959" r="44.73"/><path d="m243.638 272.051c0-18.995 11.845-35.214 28.547-41.701-5.022-1.949-10.476-3.03-16.185-3.03-24.704 0-44.73 20.026-44.73 44.732 0 24.704 20.026 44.73 44.73 44.73 5.709 0 11.163-1.082 16.185-3.031-16.703-6.488-28.547-22.706-28.547-41.7z" fill="#374949"/><path d="m156.833 202.189c-4.143 0-7.5-3.357-7.5-7.5v-43.479h-8.721c-4.143 0-7.5-3.358-7.5-7.5 0-4.143 3.357-7.5 7.5-7.5h11.069c6.976 0 12.651 5.676 12.651 12.651v45.827c.001 4.143-3.356 7.501-7.499 7.501z" fill="#0592fb"/><path d="m209.913 184.387c0 5.666-4.636 10.302-10.302 10.302h-5.828c-5.666 0-10.303-4.636-10.303-10.302v-30.375c0-5.666 4.637-10.302 10.303-10.302h5.828c5.666 0 10.302 4.636 10.302 10.302z" fill="#c7eefd"/><path d="m199.611 202.189h-5.828c-9.816 0-17.803-7.985-17.803-17.802v-30.375c0-9.816 7.986-17.802 17.803-17.802h5.828c9.816 0 17.802 7.985 17.802 17.802v30.375c0 9.816-7.985 17.802-17.802 17.802zm-5.828-50.979c-1.52 0-2.803 1.283-2.803 2.802v30.375c0 1.519 1.283 2.802 2.803 2.802h5.828c1.519 0 2.802-1.283 2.802-2.802v-30.375c0-1.519-1.283-2.802-2.802-2.802z" fill="#0592fb"/><path d="m263.424 184.387c0 5.666-4.636 10.302-10.302 10.302h-5.829c-5.666 0-10.302-4.636-10.302-10.302v-30.375c0-5.666 4.636-10.302 10.302-10.302h5.829c5.666 0 10.302 4.636 10.302 10.302z" fill="#c7eefd"/><path d="m253.122 202.189h-5.829c-9.816 0-17.802-7.985-17.802-17.802v-30.375c0-9.816 7.986-17.802 17.802-17.802h5.829c9.816 0 17.802 7.985 17.802 17.802v30.375c0 9.816-7.985 17.802-17.802 17.802zm-5.829-50.979c-1.519 0-2.802 1.283-2.802 2.802v30.375c0 1.519 1.283 2.802 2.802 2.802h5.829c1.518 0 2.802-1.283 2.802-2.802v-30.375c0-1.519-1.283-2.802-2.802-2.802z" fill="#0592fb"/><path d="m316.934 184.387c0 5.666-4.636 10.302-10.302 10.302h-5.829c-5.666 0-10.302-4.636-10.302-10.302v-30.375c0-5.666 4.636-10.302 10.302-10.302h5.829c5.666 0 10.302 4.636 10.302 10.302z" fill="#c7eefd"/><g fill="#0592fb"><path d="m306.632 202.189h-5.829c-9.815 0-17.802-7.985-17.802-17.802v-30.375c0-9.816 7.986-17.802 17.802-17.802h5.829c9.816 0 17.802 7.985 17.802 17.802v30.375c0 9.816-7.986 17.802-17.802 17.802zm-5.829-50.979c-1.518 0-2.802 1.283-2.802 2.802v30.375c0 1.519 1.283 2.802 2.802 2.802h5.829c1.519 0 2.802-1.283 2.802-2.802v-30.375c0-1.519-1.283-2.802-2.802-2.802z"/><path d="m371.388 161.699h-5.245v-5.244c0-4.143-3.357-7.5-7.5-7.5s-7.5 3.357-7.5 7.5v5.244h-5.244c-4.143 0-7.5 3.357-7.5 7.5s3.357 7.5 7.5 7.5h5.244v5.244c0 4.143 3.357 7.5 7.5 7.5s7.5-3.357 7.5-7.5v-5.244h5.245c4.143 0 7.5-3.357 7.5-7.5 0-4.142-3.358-7.5-7.5-7.5z"/></g></svg>